<?xml version="1.0" encoding="UTF-8" standalone="no"?>
<!DOCTYPE svg PUBLIC "-//W3C//DTD SVG 1.1//EN"
 "http://www.w3.org/Graphics/SVG/1.1/DTD/svg11.dtd">
<!-- Generated by graphviz version 2.43.0 (0)
 -->
<!-- Title: G Pages: 1 -->
<svg width="333pt" height="98pt"
 viewBox="0.00 0.00 332.68 98.00" xmlns="http://www.w3.org/2000/svg" xmlns:xlink="http://www.w3.org/1999/xlink">
<g id="graph0" class="graph" transform="scale(1 1) rotate(0) translate(4 94)">
<title>G</title>
<polygon fill="white" stroke="transparent" points="-4,4 -4,-94 328.68,-94 328.68,4 -4,4"/>
<!-- model -->
<g id="node1" class="node">
<title>model</title>
<polygon fill="none" stroke="black" points="202.89,-70 134.89,-70 130.89,-66 130.89,-20 198.89,-20 202.89,-24 202.89,-70"/>
<polyline fill="none" stroke="black" points="198.89,-66 130.89,-66 "/>
<polyline fill="none" stroke="black" points="198.89,-66 198.89,-20 "/>
<polyline fill="none" stroke="black" points="198.89,-66 202.89,-70 "/>
<text text-anchor="middle" x="166.89" y="-41.3" font-family="Times,serif" font-size="14.00">model</text>
</g>
<!-- results -->
<g id="node3" class="node">
<title>results</title>
<ellipse fill="none" stroke="black" cx="281.79" cy="-45" rx="42.79" ry="18"/>
<text text-anchor="middle" x="281.79" y="-41.3" font-family="Times,serif" font-size="14.00">results</text>
</g>
<!-- model&#45;&gt;results -->
<g id="edge2" class="edge">
<title>model&#45;&gt;results</title>
<path fill="none" stroke="black" d="M202.99,-45C211.09,-45 219.87,-45 228.52,-45"/>
<polygon fill="black" stroke="black" points="228.57,-48.5 238.57,-45 228.57,-41.5 228.57,-48.5"/>
</g>
<!-- inputs -->
<g id="node2" class="node">
<title>inputs</title>
<ellipse fill="none" stroke="black" cx="47.45" cy="-72" rx="40.09" ry="18"/>
<text text-anchor="middle" x="47.45" y="-68.3" font-family="Times,serif" font-size="14.00">inputs</text>
</g>
<!-- inputs&#45;&gt;model -->
<g id="edge1" class="edge">
<title>inputs&#45;&gt;model</title>
<path fill="none" stroke="black" d="M83.68,-63.9C95.3,-61.23 108.38,-58.22 120.63,-55.41"/>
<polygon fill="black" stroke="black" points="121.72,-58.75 130.68,-53.1 120.15,-51.92 121.72,-58.75"/>
</g>
<!-- weights -->
<g id="node4" class="node">
<title>weights</title>
<ellipse fill="none" stroke="black" cx="47.45" cy="-18" rx="47.39" ry="18"/>
<text text-anchor="middle" x="47.45" y="-14.3" font-family="Times,serif" font-size="14.00">weights</text>
</g>
<!-- weights&#45;&gt;model -->
<g id="edge3" class="edge">
<title>weights&#45;&gt;model</title>
<path fill="none" stroke="black" d="M88.54,-27.22C98.91,-29.6 110.15,-32.19 120.76,-34.62"/>
<polygon fill="black" stroke="black" points="120.17,-38.08 130.7,-36.91 121.73,-31.26 120.17,-38.08"/>
</g>
</g>
</svg>
