<?xml version="1.0" encoding="UTF-8" standalone="no"?>
<!DOCTYPE svg PUBLIC "-//W3C//DTD SVG 1.1//EN"
 "http://www.w3.org/Graphics/SVG/1.1/DTD/svg11.dtd">
<!-- Generated by graphviz version 2.43.0 (0)
 -->
<!-- Title: G Pages: 1 -->
<svg width="584pt" height="139pt"
 viewBox="0.00 0.00 583.97 139.23" xmlns="http://www.w3.org/2000/svg" xmlns:xlink="http://www.w3.org/1999/xlink">
<g id="graph0" class="graph" transform="scale(1 1) rotate(0) translate(4 135.23)">
<title>G</title>
<polygon fill="white" stroke="transparent" points="-4,4 -4,-135.23 579.97,-135.23 579.97,4 -4,4"/>
<!-- model -->
<g id="node1" class="node">
<title>model</title>
<polygon fill="none" stroke="black" points="269.69,-84.23 169.69,-84.23 165.69,-80.23 165.69,-34.23 265.69,-34.23 269.69,-38.23 269.69,-84.23"/>
<polyline fill="none" stroke="black" points="265.69,-80.23 165.69,-80.23 "/>
<polyline fill="none" stroke="black" points="265.69,-80.23 265.69,-34.23 "/>
<polyline fill="none" stroke="black" points="265.69,-80.23 269.69,-84.23 "/>
<text text-anchor="middle" x="217.69" y="-55.53" font-family="Times,serif" font-size="14.00">architecture</text>
</g>
<!-- predictions -->
<g id="node3" class="node">
<title>predictions</title>
<ellipse fill="none" stroke="black" cx="418.73" cy="-59.23" rx="63.09" ry="18"/>
<text text-anchor="middle" x="418.73" y="-55.53" font-family="Times,serif" font-size="14.00">predictions</text>
</g>
<!-- model&#45;&gt;predictions -->
<g id="edge2" class="edge">
<title>model&#45;&gt;predictions</title>
<path fill="none" stroke="black" d="M269.69,-59.23C292.67,-59.23 320.22,-59.23 345.29,-59.23"/>
<polygon fill="black" stroke="black" points="345.49,-62.73 355.49,-59.23 345.49,-55.73 345.49,-62.73"/>
</g>
<!-- inputs -->
<g id="node2" class="node">
<title>inputs</title>
<ellipse fill="none" stroke="black" cx="64.34" cy="-79.23" rx="40.09" ry="18"/>
<text text-anchor="middle" x="64.34" y="-75.53" font-family="Times,serif" font-size="14.00">inputs</text>
</g>
<!-- inputs&#45;&gt;model -->
<g id="edge1" class="edge">
<title>inputs&#45;&gt;model</title>
<path fill="none" stroke="black" d="M103.14,-74.23C118.95,-72.14 137.73,-69.66 155.42,-67.32"/>
<polygon fill="black" stroke="black" points="156.23,-70.75 165.68,-65.97 155.31,-63.81 156.23,-70.75"/>
</g>
<!-- loss -->
<g id="node6" class="node">
<title>loss</title>
<ellipse fill="none" stroke="black" cx="547.37" cy="-88.23" rx="28.7" ry="18"/>
<text text-anchor="middle" x="547.37" y="-84.53" font-family="Times,serif" font-size="14.00">loss</text>
</g>
<!-- predictions&#45;&gt;loss -->
<g id="edge5" class="edge">
<title>predictions&#45;&gt;loss</title>
<path fill="none" stroke="black" d="M468.33,-70.35C482.2,-73.53 497.07,-76.94 510.07,-79.91"/>
<polygon fill="black" stroke="black" points="509.51,-83.37 520.04,-82.19 511.07,-76.55 509.51,-83.37"/>
</g>
<!-- parameters -->
<g id="node4" class="node">
<title>parameters</title>
<ellipse fill="none" stroke="black" cx="64.34" cy="-25.23" rx="64.19" ry="18"/>
<text text-anchor="middle" x="64.34" y="-21.53" font-family="Times,serif" font-size="14.00">parameters</text>
</g>
<!-- parameters&#45;&gt;model -->
<g id="edge3" class="edge">
<title>parameters&#45;&gt;model</title>
<path fill="none" stroke="black" d="M115.32,-36.45C128.15,-39.33 142.1,-42.47 155.43,-45.46"/>
<polygon fill="black" stroke="black" points="154.95,-48.94 165.47,-47.72 156.48,-42.11 154.95,-48.94"/>
</g>
<!-- labels -->
<g id="node5" class="node">
<title>labels</title>
<ellipse fill="none" stroke="black" cx="418.73" cy="-113.23" rx="38.19" ry="18"/>
<text text-anchor="middle" x="418.73" y="-109.53" font-family="Times,serif" font-size="14.00">labels</text>
</g>
<!-- labels&#45;&gt;loss -->
<g id="edge4" class="edge">
<title>labels&#45;&gt;loss</title>
<path fill="none" stroke="black" d="M454.34,-106.39C471.6,-102.99 492.48,-98.86 509.98,-95.41"/>
<polygon fill="black" stroke="black" points="510.71,-98.83 519.85,-93.46 509.36,-91.97 510.71,-98.83"/>
</g>
<!-- loss&#45;&gt;parameters -->
<g id="edge6" class="edge">
<title>loss&#45;&gt;parameters</title>
<path fill="none" stroke="black" d="M533.69,-72.35C521.86,-58.9 502.92,-40.51 481.78,-32.23 363.35,14.2 211.05,0.13 127.34,-13.22"/>
<polygon fill="black" stroke="black" points="126.53,-9.81 117.23,-14.88 127.67,-16.71 126.53,-9.81"/>
<text text-anchor="middle" x="312.69" y="-6.03" font-family="Times,serif" font-size="14.00">update</text>
</g>
</g>
</svg>
