<?xml version="1.0" encoding="UTF-8" standalone="no"?>
<!DOCTYPE svg PUBLIC "-//W3C//DTD SVG 1.1//EN"
 "http://www.w3.org/Graphics/SVG/1.1/DTD/svg11.dtd">
<!-- Generated by graphviz version 12.1.2 (20240928.0832)
 -->
<!-- Title: G Pages: 1 -->
<svg width="301pt" height="98pt"
 viewBox="0.00 0.00 301.11 98.00" xmlns="http://www.w3.org/2000/svg" xmlns:xlink="http://www.w3.org/1999/xlink">
<g id="graph0" class="graph" transform="scale(1 1) rotate(0) translate(4 94)">
<title>G</title>
<polygon fill="white" stroke="none" points="-4,4 -4,-94 297.11,-94 297.11,4 -4,4"/>
<!-- model -->
<g id="node1" class="node">
<title>model</title>
<polygon fill="none" stroke="black" points="187.16,-70.2 119.16,-70.2 115.16,-66.2 115.16,-19.8 183.16,-19.8 187.16,-23.8 187.16,-70.2"/>
<polyline fill="none" stroke="black" points="183.16,-66.2 115.16,-66.2"/>
<polyline fill="none" stroke="black" points="183.16,-66.2 183.16,-19.8"/>
<polyline fill="none" stroke="black" points="183.16,-66.2 187.16,-70.2"/>
<text text-anchor="middle" x="151.16" y="-39.95" font-family="Times New Roman,serif" font-size="14.00">model</text>
</g>
<!-- results -->
<g id="node3" class="node">
<title>results</title>
<ellipse fill="none" stroke="black" cx="258.13" cy="-45" rx="34.97" ry="18"/>
<text text-anchor="middle" x="258.13" y="-39.95" font-family="Times New Roman,serif" font-size="14.00">results</text>
</g>
<!-- model&#45;&gt;results -->
<g id="edge2" class="edge">
<title>model&#45;&gt;results</title>
<path fill="none" stroke="black" d="M187.41,-45C195.18,-45 203.52,-45 211.63,-45"/>
<polygon fill="black" stroke="black" points="211.36,-48.5 221.36,-45 211.36,-41.5 211.36,-48.5"/>
</g>
<!-- inputs -->
<g id="node2" class="node">
<title>inputs</title>
<ellipse fill="none" stroke="black" cx="39.58" cy="-72" rx="33.44" ry="18"/>
<text text-anchor="middle" x="39.58" y="-66.95" font-family="Times New Roman,serif" font-size="14.00">inputs</text>
</g>
<!-- inputs&#45;&gt;model -->
<g id="edge1" class="edge">
<title>inputs&#45;&gt;model</title>
<path fill="none" stroke="black" d="M70.52,-64.62C80.79,-62.09 92.53,-59.2 103.79,-56.43"/>
<polygon fill="black" stroke="black" points="104.47,-59.86 113.34,-54.07 102.79,-53.07 104.47,-59.86"/>
</g>
<!-- weights -->
<g id="node4" class="node">
<title>weights</title>
<ellipse fill="none" stroke="black" cx="39.58" cy="-18" rx="39.58" ry="18"/>
<text text-anchor="middle" x="39.58" y="-12.95" font-family="Times New Roman,serif" font-size="14.00">weights</text>
</g>
<!-- weights&#45;&gt;model -->
<g id="edge3" class="edge">
<title>weights&#45;&gt;model</title>
<path fill="none" stroke="black" d="M74.95,-26.47C84.06,-28.71 94.06,-31.18 103.7,-33.55"/>
<polygon fill="black" stroke="black" points="102.76,-36.93 113.31,-35.92 104.44,-30.13 102.76,-36.93"/>
</g>
</g>
</svg>
