<?xml version="1.0" encoding="UTF-8" standalone="no"?>
<!DOCTYPE svg PUBLIC "-//W3C//DTD SVG 1.1//EN"
 "http://www.w3.org/Graphics/SVG/1.1/DTD/svg11.dtd">
<!-- Generated by graphviz version 12.1.2 (20240928.0832)
 -->
<!-- Title: G Pages: 1 -->
<svg width="289pt" height="58pt"
 viewBox="0.00 0.00 288.82 58.40" xmlns="http://www.w3.org/2000/svg" xmlns:xlink="http://www.w3.org/1999/xlink">
<g id="graph0" class="graph" transform="scale(1 1) rotate(0) translate(4 54.4)">
<title>G</title>
<polygon fill="white" stroke="none" points="-4,4 -4,-54.4 284.82,-54.4 284.82,4 -4,4"/>
<!-- program -->
<g id="node1" class="node">
<title>program</title>
<polygon fill="none" stroke="black" points="174.88,-50.4 106.88,-50.4 102.88,-46.4 102.88,0 170.88,0 174.88,-4 174.88,-50.4"/>
<polyline fill="none" stroke="black" points="170.88,-46.4 102.88,-46.4"/>
<polyline fill="none" stroke="black" points="170.88,-46.4 170.88,0"/>
<polyline fill="none" stroke="black" points="170.88,-46.4 174.88,-50.4"/>
<text text-anchor="middle" x="138.88" y="-20.15" font-family="Times New Roman,serif" font-size="14.00">program</text>
</g>
<!-- results -->
<g id="node3" class="node">
<title>results</title>
<ellipse fill="none" stroke="black" cx="245.85" cy="-25.2" rx="34.97" ry="18"/>
<text text-anchor="middle" x="245.85" y="-20.15" font-family="Times New Roman,serif" font-size="14.00">results</text>
</g>
<!-- program&#45;&gt;results -->
<g id="edge2" class="edge">
<title>program&#45;&gt;results</title>
<path fill="none" stroke="black" d="M175.12,-25.2C182.9,-25.2 191.24,-25.2 199.35,-25.2"/>
<polygon fill="black" stroke="black" points="199.07,-28.7 209.07,-25.2 199.07,-21.7 199.07,-28.7"/>
</g>
<!-- inputs -->
<g id="node2" class="node">
<title>inputs</title>
<ellipse fill="none" stroke="black" cx="33.44" cy="-25.2" rx="33.44" ry="18"/>
<text text-anchor="middle" x="33.44" y="-20.15" font-family="Times New Roman,serif" font-size="14.00">inputs</text>
</g>
<!-- inputs&#45;&gt;program -->
<g id="edge1" class="edge">
<title>inputs&#45;&gt;program</title>
<path fill="none" stroke="black" d="M67.17,-25.2C74.81,-25.2 83.1,-25.2 91.21,-25.2"/>
<polygon fill="black" stroke="black" points="90.98,-28.7 100.98,-25.2 90.98,-21.7 90.98,-28.7"/>
</g>
</g>
</svg>
