<?xml version="1.0" encoding="UTF-8" standalone="no"?>
<!DOCTYPE svg PUBLIC "-//W3C//DTD SVG 1.1//EN"
 "http://www.w3.org/Graphics/SVG/1.1/DTD/svg11.dtd">
<!-- Generated by graphviz version 12.1.2 (20240928.0832)
 -->
<!-- Title: G Pages: 1 -->
<svg width="491pt" height="98pt"
 viewBox="0.00 0.00 491.12 98.00" xmlns="http://www.w3.org/2000/svg" xmlns:xlink="http://www.w3.org/1999/xlink">
<g id="graph0" class="graph" transform="scale(1 1) rotate(0) translate(4 94)">
<title>G</title>
<polygon fill="white" stroke="none" points="-4,4 -4,-94 487.12,-94 487.12,4 -4,4"/>
<!-- model -->
<g id="node1" class="node">
<title>model</title>
<polygon fill="none" stroke="black" points="188.16,-78.2 120.16,-78.2 116.16,-74.2 116.16,-27.8 184.16,-27.8 188.16,-31.8 188.16,-78.2"/>
<polyline fill="none" stroke="black" points="184.16,-74.2 116.16,-74.2"/>
<polyline fill="none" stroke="black" points="184.16,-74.2 184.16,-27.8"/>
<polyline fill="none" stroke="black" points="184.16,-74.2 188.16,-78.2"/>
<text text-anchor="middle" x="152.16" y="-47.95" font-family="Times New Roman,serif" font-size="14.00">model</text>
</g>
<!-- results -->
<g id="node3" class="node">
<title>results</title>
<ellipse fill="none" stroke="black" cx="295.13" cy="-53" rx="34.97" ry="18"/>
<text text-anchor="middle" x="295.13" y="-47.95" font-family="Times New Roman,serif" font-size="14.00">results</text>
</g>
<!-- model&#45;&gt;results -->
<g id="edge2" class="edge">
<title>model&#45;&gt;results</title>
<path fill="none" stroke="black" d="M188.37,-53C206.55,-53 228.96,-53 248.46,-53"/>
<polygon fill="black" stroke="black" points="248.34,-56.5 258.34,-53 248.34,-49.5 248.34,-56.5"/>
</g>
<!-- inputs -->
<g id="node2" class="node">
<title>inputs</title>
<ellipse fill="none" stroke="black" cx="39.58" cy="-72" rx="33.44" ry="18"/>
<text text-anchor="middle" x="39.58" y="-66.95" font-family="Times New Roman,serif" font-size="14.00">inputs</text>
</g>
<!-- inputs&#45;&gt;model -->
<g id="edge1" class="edge">
<title>inputs&#45;&gt;model</title>
<path fill="none" stroke="black" d="M71.97,-66.61C82.11,-64.86 93.58,-62.89 104.58,-61"/>
<polygon fill="black" stroke="black" points="105.04,-64.48 114.3,-59.33 103.86,-57.58 105.04,-64.48"/>
</g>
<!-- performance -->
<g id="node5" class="node">
<title>performance</title>
<ellipse fill="none" stroke="black" cx="425.11" cy="-53" rx="58" ry="18"/>
<text text-anchor="middle" x="425.11" y="-47.95" font-family="Times New Roman,serif" font-size="14.00">performance</text>
</g>
<!-- results&#45;&gt;performance -->
<g id="edge4" class="edge">
<title>results&#45;&gt;performance</title>
<path fill="none" stroke="black" d="M330.43,-53C338.25,-53 346.84,-53 355.54,-53"/>
<polygon fill="black" stroke="black" points="355.47,-56.5 365.47,-53 355.47,-49.5 355.47,-56.5"/>
</g>
<!-- weights -->
<g id="node4" class="node">
<title>weights</title>
<ellipse fill="none" stroke="black" cx="39.58" cy="-18" rx="39.58" ry="18"/>
<text text-anchor="middle" x="39.58" y="-12.95" font-family="Times New Roman,serif" font-size="14.00">weights</text>
</g>
<!-- weights&#45;&gt;model -->
<g id="edge3" class="edge">
<title>weights&#45;&gt;model</title>
<path fill="none" stroke="black" d="M72.86,-28.22C83,-31.43 94.39,-35.03 105.28,-38.48"/>
<polygon fill="black" stroke="black" points="103.9,-41.71 114.49,-41.39 106.02,-35.04 103.9,-41.71"/>
</g>
<!-- performance&#45;&gt;weights -->
<g id="edge5" class="edge">
<title>performance&#45;&gt;weights</title>
<path fill="none" stroke="black" d="M385.24,-39.66C368.48,-34.47 348.53,-29.06 330.11,-26 247.04,-12.21 148.75,-13.04 90.71,-15.26"/>
<polygon fill="black" stroke="black" points="90.66,-11.76 80.82,-15.67 90.95,-18.75 90.66,-11.76"/>
<text text-anchor="middle" x="224.16" y="-19.67" font-family="Times New Roman,serif" font-size="14.00">update</text>
</g>
</g>
</svg>
