<?xml version="1.0" encoding="UTF-8" standalone="no"?>
<!DOCTYPE svg PUBLIC "-//W3C//DTD SVG 1.1//EN"
 "http://www.w3.org/Graphics/SVG/1.1/DTD/svg11.dtd">
<!-- Generated by graphviz version 12.1.2 (20240928.0832)
 -->
<!-- Title: G Pages: 1 -->
<svg width="495pt" height="138pt"
 viewBox="0.00 0.00 495.20 137.78" xmlns="http://www.w3.org/2000/svg" xmlns:xlink="http://www.w3.org/1999/xlink">
<g id="graph0" class="graph" transform="scale(1 1) rotate(0) translate(4 133.78)">
<title>G</title>
<polygon fill="white" stroke="none" points="-4,4 -4,-133.78 491.2,-133.78 491.2,4 -4,4"/>
<!-- model -->
<g id="node1" class="node">
<title>model</title>
<polygon fill="none" stroke="black" points="220.48,-82.98 144.73,-82.98 140.73,-78.98 140.73,-32.58 216.48,-32.58 220.48,-36.58 220.48,-82.98"/>
<polyline fill="none" stroke="black" points="216.48,-78.98 140.73,-78.98"/>
<polyline fill="none" stroke="black" points="216.48,-78.98 216.48,-32.58"/>
<polyline fill="none" stroke="black" points="216.48,-78.98 220.48,-82.98"/>
<text text-anchor="middle" x="180.6" y="-52.73" font-family="Times New Roman,serif" font-size="14.00">architecture</text>
</g>
<!-- predictions -->
<g id="node3" class="node">
<title>predictions</title>
<ellipse fill="none" stroke="black" cx="344.34" cy="-57.78" rx="51.86" ry="18"/>
<text text-anchor="middle" x="344.34" y="-52.73" font-family="Times New Roman,serif" font-size="14.00">predictions</text>
</g>
<!-- model&#45;&gt;predictions -->
<g id="edge2" class="edge">
<title>model&#45;&gt;predictions</title>
<path fill="none" stroke="black" d="M220.75,-57.78C238.73,-57.78 260.5,-57.78 280.68,-57.78"/>
<polygon fill="black" stroke="black" points="280.49,-61.28 290.49,-57.78 280.49,-54.28 280.49,-61.28"/>
</g>
<!-- inputs -->
<g id="node2" class="node">
<title>inputs</title>
<ellipse fill="none" stroke="black" cx="51.86" cy="-76.78" rx="33.44" ry="18"/>
<text text-anchor="middle" x="51.86" y="-71.73" font-family="Times New Roman,serif" font-size="14.00">inputs</text>
</g>
<!-- inputs&#45;&gt;model -->
<g id="edge1" class="edge">
<title>inputs&#45;&gt;model</title>
<path fill="none" stroke="black" d="M84.52,-72.03C98.07,-70 114.24,-67.58 129.36,-65.31"/>
<polygon fill="black" stroke="black" points="129.79,-68.79 139.16,-63.84 128.75,-61.86 129.79,-68.79"/>
</g>
<!-- loss -->
<g id="node6" class="node">
<title>loss</title>
<ellipse fill="none" stroke="black" cx="460.2" cy="-97.78" rx="27" ry="18"/>
<text text-anchor="middle" x="460.2" y="-92.73" font-family="Times New Roman,serif" font-size="14.00">loss</text>
</g>
<!-- predictions&#45;&gt;loss -->
<g id="edge5" class="edge">
<title>predictions&#45;&gt;loss</title>
<path fill="none" stroke="black" d="M381.68,-70.55C395.65,-75.45 411.53,-81.03 425.26,-85.86"/>
<polygon fill="black" stroke="black" points="423.72,-89.02 434.31,-89.04 426.04,-82.42 423.72,-89.02"/>
</g>
<!-- parameters -->
<g id="node4" class="node">
<title>parameters</title>
<ellipse fill="none" stroke="black" cx="51.86" cy="-22.78" rx="51.86" ry="18"/>
<text text-anchor="middle" x="51.86" y="-17.73" font-family="Times New Roman,serif" font-size="14.00">parameters</text>
</g>
<!-- parameters&#45;&gt;model -->
<g id="edge3" class="edge">
<title>parameters&#45;&gt;model</title>
<path fill="none" stroke="black" d="M93.31,-33.95C104.85,-37.14 117.56,-40.65 129.59,-43.97"/>
<polygon fill="black" stroke="black" points="128.37,-47.26 138.94,-46.55 130.23,-40.52 128.37,-47.26"/>
</g>
<!-- labels -->
<g id="node5" class="node">
<title>labels</title>
<ellipse fill="none" stroke="black" cx="344.34" cy="-111.78" rx="32.41" ry="18"/>
<text text-anchor="middle" x="344.34" y="-106.73" font-family="Times New Roman,serif" font-size="14.00">labels</text>
</g>
<!-- labels&#45;&gt;loss -->
<g id="edge4" class="edge">
<title>labels&#45;&gt;loss</title>
<path fill="none" stroke="black" d="M376.45,-107.95C390.48,-106.23 407.16,-104.18 421.86,-102.37"/>
<polygon fill="black" stroke="black" points="422.13,-105.86 431.63,-101.17 421.28,-98.92 422.13,-105.86"/>
</g>
<!-- loss&#45;&gt;parameters -->
<g id="edge6" class="edge">
<title>loss&#45;&gt;parameters</title>
<path fill="none" stroke="black" d="M449.07,-81.05C438.24,-64.9 419.45,-41.38 396.2,-30.78 302.3,12.06 178.39,0.62 108,-11.28"/>
<polygon fill="black" stroke="black" points="107.49,-7.82 98.25,-13 108.7,-14.71 107.49,-7.82"/>
<text text-anchor="middle" x="256.48" y="-5.16" font-family="Times New Roman,serif" font-size="14.00">update</text>
</g>
</g>
</svg>
