<?xml version="1.0" encoding="UTF-8" standalone="no"?>
<!DOCTYPE svg PUBLIC "-//W3C//DTD SVG 1.1//EN"
 "http://www.w3.org/Graphics/SVG/1.1/DTD/svg11.dtd">
<!-- Generated by graphviz version 2.43.0 (0)
 -->
<!-- Title: G Pages: 1 -->
<svg width="324pt" height="58pt"
 viewBox="0.00 0.00 324.39 58.00" xmlns="http://www.w3.org/2000/svg" xmlns:xlink="http://www.w3.org/1999/xlink">
<g id="graph0" class="graph" transform="scale(1 1) rotate(0) translate(4 54)">
<title>G</title>
<polygon fill="white" stroke="transparent" points="-4,4 -4,-54 320.39,-54 320.39,4 -4,4"/>
<!-- program -->
<g id="node1" class="node">
<title>program</title>
<polygon fill="none" stroke="black" points="194.59,-50 120.59,-50 116.59,-46 116.59,0 190.59,0 194.59,-4 194.59,-50"/>
<polyline fill="none" stroke="black" points="190.59,-46 116.59,-46 "/>
<polyline fill="none" stroke="black" points="190.59,-46 190.59,0 "/>
<polyline fill="none" stroke="black" points="190.59,-46 194.59,-50 "/>
<text text-anchor="middle" x="155.59" y="-21.3" font-family="Times,serif" font-size="14.00">program</text>
</g>
<!-- results -->
<g id="node3" class="node">
<title>results</title>
<ellipse fill="none" stroke="black" cx="273.49" cy="-25" rx="42.79" ry="18"/>
<text text-anchor="middle" x="273.49" y="-21.3" font-family="Times,serif" font-size="14.00">results</text>
</g>
<!-- program&#45;&gt;results -->
<g id="edge2" class="edge">
<title>program&#45;&gt;results</title>
<path fill="none" stroke="black" d="M194.86,-25C202.93,-25 211.56,-25 220.04,-25"/>
<polygon fill="black" stroke="black" points="220.26,-28.5 230.26,-25 220.26,-21.5 220.26,-28.5"/>
</g>
<!-- inputs -->
<g id="node2" class="node">
<title>inputs</title>
<ellipse fill="none" stroke="black" cx="40.3" cy="-25" rx="40.09" ry="18"/>
<text text-anchor="middle" x="40.3" y="-21.3" font-family="Times,serif" font-size="14.00">inputs</text>
</g>
<!-- inputs&#45;&gt;program -->
<g id="edge1" class="edge">
<title>inputs&#45;&gt;program</title>
<path fill="none" stroke="black" d="M80.6,-25C88.87,-25 97.69,-25 106.25,-25"/>
<polygon fill="black" stroke="black" points="106.5,-28.5 116.5,-25 106.5,-21.5 106.5,-28.5"/>
</g>
</g>
</svg>
