<?xml version="1.0" encoding="UTF-8" standalone="no"?>
<!DOCTYPE svg PUBLIC "-//W3C//DTD SVG 1.1//EN"
 "http://www.w3.org/Graphics/SVG/1.1/DTD/svg11.dtd">
<!-- Generated by graphviz version 2.43.0 (0)
 -->
<!-- Title: G Pages: 1 -->
<svg width="318pt" height="58pt"
 viewBox="0.00 0.00 318.39 58.00" xmlns="http://www.w3.org/2000/svg" xmlns:xlink="http://www.w3.org/1999/xlink">
<g id="graph0" class="graph" transform="scale(1 1) rotate(0) translate(4 54)">
<title>G</title>
<polygon fill="white" stroke="transparent" points="-4,4 -4,-54 314.39,-54 314.39,4 -4,4"/>
<!-- model -->
<g id="node1" class="node">
<title>model</title>
<polygon fill="none" stroke="black" points="188.59,-50 120.59,-50 116.59,-46 116.59,0 184.59,0 188.59,-4 188.59,-50"/>
<polyline fill="none" stroke="black" points="184.59,-46 116.59,-46 "/>
<polyline fill="none" stroke="black" points="184.59,-46 184.59,0 "/>
<polyline fill="none" stroke="black" points="184.59,-46 188.59,-50 "/>
<text text-anchor="middle" x="152.59" y="-21.3" font-family="Times,serif" font-size="14.00">model</text>
</g>
<!-- results -->
<g id="node3" class="node">
<title>results</title>
<ellipse fill="none" stroke="black" cx="267.49" cy="-25" rx="42.79" ry="18"/>
<text text-anchor="middle" x="267.49" y="-21.3" font-family="Times,serif" font-size="14.00">results</text>
</g>
<!-- model&#45;&gt;results -->
<g id="edge2" class="edge">
<title>model&#45;&gt;results</title>
<path fill="none" stroke="black" d="M188.7,-25C196.79,-25 205.57,-25 214.22,-25"/>
<polygon fill="black" stroke="black" points="214.27,-28.5 224.27,-25 214.27,-21.5 214.27,-28.5"/>
</g>
<!-- inputs -->
<g id="node2" class="node">
<title>inputs</title>
<ellipse fill="none" stroke="black" cx="40.3" cy="-25" rx="40.09" ry="18"/>
<text text-anchor="middle" x="40.3" y="-21.3" font-family="Times,serif" font-size="14.00">inputs</text>
</g>
<!-- inputs&#45;&gt;model -->
<g id="edge1" class="edge">
<title>inputs&#45;&gt;model</title>
<path fill="none" stroke="black" d="M80.8,-25C89.07,-25 97.84,-25 106.29,-25"/>
<polygon fill="black" stroke="black" points="106.39,-28.5 116.39,-25 106.39,-21.5 106.39,-28.5"/>
</g>
</g>
</svg>
