<?xml version="1.0" encoding="UTF-8" standalone="no"?>
<!DOCTYPE svg PUBLIC "-//W3C//DTD SVG 1.1//EN"
 "http://www.w3.org/Graphics/SVG/1.1/DTD/svg11.dtd">
<!-- Generated by graphviz version 2.43.0 (0)
 -->
<!-- Title: G Pages: 1 -->
<svg width="560pt" height="98pt"
 viewBox="0.00 0.00 559.77 98.00" xmlns="http://www.w3.org/2000/svg" xmlns:xlink="http://www.w3.org/1999/xlink">
<g id="graph0" class="graph" transform="scale(1 1) rotate(0) translate(4 94)">
<title>G</title>
<polygon fill="white" stroke="transparent" points="-4,4 -4,-94 555.77,-94 555.77,4 -4,4"/>
<!-- model -->
<g id="node1" class="node">
<title>model</title>
<polygon fill="none" stroke="black" points="203.89,-77 135.89,-77 131.89,-73 131.89,-27 199.89,-27 203.89,-31 203.89,-77"/>
<polyline fill="none" stroke="black" points="199.89,-73 131.89,-73 "/>
<polyline fill="none" stroke="black" points="199.89,-73 199.89,-27 "/>
<polyline fill="none" stroke="black" points="199.89,-73 203.89,-77 "/>
<text text-anchor="middle" x="167.89" y="-48.3" font-family="Times,serif" font-size="14.00">model</text>
</g>
<!-- results -->
<g id="node3" class="node">
<title>results</title>
<ellipse fill="none" stroke="black" cx="332.79" cy="-52" rx="42.79" ry="18"/>
<text text-anchor="middle" x="332.79" y="-48.3" font-family="Times,serif" font-size="14.00">results</text>
</g>
<!-- model&#45;&gt;results -->
<g id="edge2" class="edge">
<title>model&#45;&gt;results</title>
<path fill="none" stroke="black" d="M204.24,-52C226.26,-52 254.99,-52 279.61,-52"/>
<polygon fill="black" stroke="black" points="279.88,-55.5 289.88,-52 279.88,-48.5 279.88,-55.5"/>
</g>
<!-- inputs -->
<g id="node2" class="node">
<title>inputs</title>
<ellipse fill="none" stroke="black" cx="47.45" cy="-72" rx="40.09" ry="18"/>
<text text-anchor="middle" x="47.45" y="-68.3" font-family="Times,serif" font-size="14.00">inputs</text>
</g>
<!-- inputs&#45;&gt;model -->
<g id="edge1" class="edge">
<title>inputs&#45;&gt;model</title>
<path fill="none" stroke="black" d="M85.27,-65.78C96.84,-63.83 109.74,-61.65 121.81,-59.61"/>
<polygon fill="black" stroke="black" points="122.43,-63.06 131.71,-57.94 121.26,-56.15 122.43,-63.06"/>
</g>
<!-- performance -->
<g id="node5" class="node">
<title>performance</title>
<ellipse fill="none" stroke="black" cx="482.23" cy="-52" rx="69.59" ry="18"/>
<text text-anchor="middle" x="482.23" y="-48.3" font-family="Times,serif" font-size="14.00">performance</text>
</g>
<!-- results&#45;&gt;performance -->
<g id="edge4" class="edge">
<title>results&#45;&gt;performance</title>
<path fill="none" stroke="black" d="M376.04,-52C384.32,-52 393.26,-52 402.3,-52"/>
<polygon fill="black" stroke="black" points="402.53,-55.5 412.53,-52 402.53,-48.5 402.53,-55.5"/>
</g>
<!-- weights -->
<g id="node4" class="node">
<title>weights</title>
<ellipse fill="none" stroke="black" cx="47.45" cy="-18" rx="47.39" ry="18"/>
<text text-anchor="middle" x="47.45" y="-14.3" font-family="Times,serif" font-size="14.00">weights</text>
</g>
<!-- weights&#45;&gt;model -->
<g id="edge3" class="edge">
<title>weights&#45;&gt;model</title>
<path fill="none" stroke="black" d="M85.92,-28.76C97.36,-32.04 110.05,-35.68 121.93,-39.09"/>
<polygon fill="black" stroke="black" points="121.1,-42.5 131.67,-41.89 123.03,-35.77 121.1,-42.5"/>
</g>
<!-- performance&#45;&gt;weights -->
<g id="edge5" class="edge">
<title>performance&#45;&gt;weights</title>
<path fill="none" stroke="black" d="M436.45,-38.33C417.84,-33.23 395.89,-27.96 375.68,-25 281.35,-11.17 170.11,-12.46 104.64,-14.99"/>
<polygon fill="black" stroke="black" points="104.39,-11.5 94.54,-15.41 104.68,-18.49 104.39,-11.5"/>
<text text-anchor="middle" x="246.89" y="-19.8" font-family="Times,serif" font-size="14.00">update</text>
</g>
</g>
</svg>
